<?xml version="1.0" encoding="UTF-8"?>
<svg id="Layer_1" data-name="Layer 1" xmlns="http://www.w3.org/2000/svg" viewBox="0 0 30 30">
  <g id="diamond">
    <path id="stroke" d="m15,30C10,25,4.99,19.99,0,15,4.99,10.01,10,5,15,0c5,5,10.01,10.01,15,15-4.99,4.99-10,10-15,15Zm-.02-.45c4.85-4.85,9.72-9.72,14.55-14.55C24.69,10.17,19.83,5.31,14.99.46,10.15,5.3,5.29,10.16.44,15.01c4.85,4.85,9.71,9.71,14.54,14.54Z" fill="#5d5d5d"/>
    <path id="full" d="m14.98,29.55C10.15,24.72,5.29,19.86.44,15.01,5.29,10.16,10.15,5.3,14.99.46c4.84,4.84,9.7,9.7,14.54,14.54-4.83,4.83-9.7,9.7-14.55,14.55Z" fill="#5d5d5d"/>
  </g>
</svg>